<svg width="78" height="54" viewBox="0 0 78 54" fill="none" xmlns="http://www.w3.org/2000/svg">
<path d="M41.8468 42.3897C26.7578 55.2801 16.0428 56.1892 10.5555 50.6973C5.49956 45.6413 9.69275 32.9597 19.9113 20.4358L0.494629 1.02368H12.9026L32.1894 20.3105C20.018 32.5561 12.9211 45.5949 16.5902 49.264C19.6284 52.3068 28.9796 48.0904 39.0683 39.6113L41.8468 42.3897Z" fill="#F5F5FA"/>
<path d="M77.243 52.9747H64.8351L45.5482 33.6879C57.7196 21.4469 64.8165 8.40347 61.1521 4.73906C58.1139 1.69621 48.7534 5.91724 38.6647 14.3964L35.8862 11.6179C50.9799 -1.27706 61.6994 -2.19084 67.1867 3.30113C72.2427 8.35709 68.0542 21.0387 57.8309 33.5626L77.2476 52.9747H77.243Z" fill="#F5F5FA"/>
</svg>
